<?xml version="1.0" standalone="no"?>
<!DOCTYPE svg PUBLIC "-//W3C//DTD SVG 20010904//EN"
 "http://www.w3.org/TR/2001/REC-SVG-20010904/DTD/svg10.dtd">
<svg version="1.0" xmlns="http://www.w3.org/2000/svg"
 width="512.000000pt" height="512.000000pt" viewBox="0 0 512.000000 512.000000"
 preserveAspectRatio="xMidYMid meet">

<g transform="translate(0.000000,512.000000) scale(0.100000,-0.100000)"
fill="#000000" stroke="none">
<path d="M2250 4849 c-63 -5 -148 -16 -187 -25 -281 -61 -478 -247 -523 -494
-9 -49 -9 -83 1 -149 l13 -86 13 88 c29 197 151 365 333 454 157 78 267 94
640 94 290 0 462 -13 559 -43 106 -32 200 -87 272 -158 102 -101 159 -220 175
-365 l8 -70 13 75 c31 173 -31 338 -180 477 -78 73 -212 143 -329 172 -147 38
-518 51 -808 30z"/>
<path d="M2295 3845 c-61 -8 -153 -23 -205 -35 -105 -23 -356 -104 -377 -121
-32 -27 -9 -190 63 -454 25 -93 58 -214 72 -268 30 -114 7 -108 195 -59 207
54 310 67 537 67 233 -1 349 -18 538 -81 57 -19 105 -34 107 -32 1 2 18 66 38
143 20 77 55 205 77 285 47 168 72 303 68 362 l-3 41 -87 33 c-100 39 -283 87
-418 109 -133 23 -464 28 -605 10z"/>
<path d="M1620 2495 c0 -626 2 -1136 5 -1133 3 3 41 113 85 244 l80 239 0 497
0 497 -80 392 c-44 216 -82 394 -85 397 -3 3 -5 -507 -5 -1133z m160 -159 c0
-15 -43 -26 -106 -26 -57 0 -62 27 -6 33 85 9 112 7 112 -7z"/>
<path d="M3475 3608 c-3 -13 -39 -189 -80 -391 l-75 -368 0 -248 0 -248 80 -7
c63 -6 80 -11 80 -23 0 -14 -12 -15 -80 -10 l-80 5 0 -235 0 -235 76 -236 c42
-131 80 -241 85 -246 5 -6 9 463 9 1127 0 625 -2 1137 -5 1137 -2 0 -7 -10
-10 -22z"/>
<path d="M3140 1820 c-244 -91 -600 -117 -900 -66 -78 14 -244 53 -346 82 -20
5 -22 -1 -38 -100 -17 -110 -23 -509 -8 -533 13 -21 234 -121 327 -148 150
-43 271 -58 435 -51 210 8 378 50 562 142 l86 43 8 58 c10 79 -2 366 -20 488
-9 55 -16 103 -16 108 0 10 -6 9 -90 -23z"/>
<path d="M1542 939 c-11 -67 -11 -99 -2 -149 45 -247 243 -434 523 -494 226
-49 793 -46 995 5 117 29 251 99 329 172 149 139 212 305 179 477 l-14 75 -1
-60 c-5 -240 -135 -438 -356 -545 -98 -47 -176 -66 -320 -80 -234 -22 -686 -7
-825 26 -120 29 -226 88 -311 173 -114 114 -164 227 -177 399 l-7 87 -13 -86z"/>
</g>
</svg>
